Coordinates
version=1
nRows=12
nColumns=24
inDegrees=yes

Units are S.I. units (second, meters, Newtons, ...)
Angles are in degrees.

endheader
time	pelvis_tilt	pelvis_list	pelvis_rotation	pelvis_tx	pelvis_ty	pelvis_tz	hip_flexion_r	hip_adduction_r	hip_rotation_r	knee_angle_r	ankle_angle_r	subtalar_angle_r	mtp_angle_r	hip_flexion_l	hip_adduction_l	hip_rotation_l	knee_angle_l	ankle_angle_l	subtalar_angle_l	mtp_angle_l	lumbar_extension	lumbar_bending	lumbar_rotation
      0.85800000	     -1.46881244	     -5.63769576	     -5.98307503	     -0.40285220	      1.00671276	      0.32185844	     14.45512364	     11.16964804	      4.04184901	    -19.11193691	     -2.48218859	    -21.02756454	     -8.84596566	     16.66886986	    -13.81638190	    -10.69763513	    -71.43833831	      2.74871685	    -13.52020972	     -8.18188277	    -11.42118483	      6.48705585	      8.35708925
      0.86216667	     -1.41102738	     -5.60802922	     -6.03822235	     -0.39779864	      1.00770852	      0.32207017	     13.93455637	     11.11811014	      4.13911552	    -18.86225632	     -2.37492283	    -20.96301301	     -8.85218810	     17.19790314	    -13.80995145	    -10.65105458	    -71.18717647	      3.05513874	    -13.41359583	     -8.18610359	    -11.51046827	      6.41648124	      8.61288024
      0.86633333	     -1.34555576	     -5.57251811	     -6.11288699	     -0.39268108	      1.00875429	      0.32233805	     13.38242299	     11.06143497	      4.24963469	    -18.57236131	     -2.27997095	    -20.89119815	     -8.86197790	     17.68214811	    -13.81011573	    -10.65553306	    -70.84446147	      3.25959427	    -13.31499281	     -8.19467908	    -11.58456771	      6.31445851	      8.85728854
      0.87050000	     -1.18728741	     -5.52436798	     -6.23247044	     -0.38756752	      1.00997653	      0.32267918	     12.71868605	     10.99190650	      4.42866196	    -18.26992668	     -2.16077376	    -20.82829794	     -8.88553107	     18.01143765	    -13.80351936	    -10.74575899	    -70.39690325	      3.42510682	    -13.22415255	     -8.21412494	    -11.77531232	      6.20188519	      9.13724122
      0.87466667	     -1.08904002	     -5.46993771	     -6.31977351	     -0.38245885	      1.01106502	      0.32292848	     12.12850698	     10.90409081	      4.54048556	    -17.97190214	     -2.06236242	    -20.74140886	     -8.90455738	     18.41248819	    -13.77888557	    -10.80112045	    -69.91042227	      3.61508248	    -13.10295223	     -8.22292096	    -11.88810147	      6.08430418	      9.32151432
      0.87883333	     -0.97093893	     -5.41546312	     -6.40836898	     -0.37732881	      1.01219024	      0.32316677	     11.50938814	     10.80823952	      4.64444548	    -17.65835951	     -1.96888618	    -20.63512136	     -8.92274832	     18.76655796	    -13.75232566	    -10.88028510	    -69.35202981	      3.78622658	    -12.97790667	     -8.22745475	    -12.02052691	      5.95051013	      9.52423352
      0.88300000	     -0.92888630	     -5.36175662	     -6.49158358	     -0.37219993	      1.01315765	      0.32335442	     10.97527767	     10.71202760	      4.72277622	    -17.33932185	     -1.94824903	    -20.51687060	     -8.93045581	     19.19830356	    -13.72606168	    -10.94799641	    -68.75181059	      3.93532238	    -12.84239300	     -8.22595272	    -12.06293795	      5.86137208	      9.64424667
      0.88716667	     -0.67789578	     -5.29900709	     -6.62329764	     -0.36705599	      1.01450232	      0.32365410	     10.19719525	     10.59407922	      4.87717558	    -17.00621621	     -1.78861406	    -20.38486687	     -8.94847531	     19.32562127	    -13.69602420	    -11.13780710	    -68.02688627	      4.07920611	    -12.71132363	     -8.22288996	    -12.35480315	      5.70524124	      9.94594291
      0.89133333	     -0.51900712	     -5.22235420	     -6.75228965	     -0.36190754	      1.01566404	      0.32395981	      9.52630899	     10.46707965	      5.01145759	    -16.67409494	     -1.72511923	    -20.27606829	     -8.96627450	     19.54606154	    -13.65852686	    -11.32299563	    -67.25855571	      4.19548133	    -12.56619504	     -8.21434637	    -12.52897627	      5.54248485	     10.14164967
      0.89550000	     -0.36145919	     -5.15159541	     -6.87397035	     -0.35676323	      1.01679059	      0.32423302	      8.85677333	     10.33879800	      5.13077119	    -16.33916856	     -1.64210269	    -20.13337690	     -8.98122407	     19.75317536	    -13.62366861	    -11.51483467	    -66.44090681	      4.31157434	    -12.41474668	     -8.20208981	    -12.70554827	      5.37257993	     10.36884063
      0.89966667	     -0.18834754	     -5.07055120	     -7.02154935	     -0.35160635	      1.01793279	      0.32453550	      8.17221475	     10.19691298	      5.27063634	    -16.00886536	     -1.57187885	    -20.00004266	     -8.99598597	     19.90437165	    -13.58456324	    -11.75825139	    -65.54852610	      4.40140890	    -12.27319394	     -8.18687039	    -12.89510702	      5.21493102	     10.58113965
      0.90383333	      0.00726172	     -4.99947671	     -7.17879853	     -0.34644900	      1.01907662	      0.32488318	      7.45811304	     10.06317758	      5.42441426	    -15.66843466	     -1.49674307	    -19.85763624	     -9.01063020	     20.00546000	    -13.56471163	    -12.03761507	    -64.60277202	      4.46702216	    -12.15302936	     -8.16853077	    -13.11168793	      5.03073557	     10.81905330
